<svg xmlns="http://www.w3.org/2000/svg" width="100" height="48.841" viewBox="0 0 100 48.841"><defs><style>.a{fill:#fff;}.b,.c{fill:none;stroke-miterlimit:10;}.b{stroke:#fff;}.c{stroke:#832013;}</style></defs><g transform="translate(-50.884 -26.746)"><g transform="translate(82.429 26.746)"><path class="a" d="M180.248,29.82c-.232-.214-.55-.5-.931-.817a1.607,1.607,0,0,0-2.452.045c-.892.847-14.935,13.375-14.935,13.375a2.132,2.132,0,0,0-.464,1.212Z" transform="translate(-160.895 -27.959)"/><path class="a" d="M230.343,34.12c0,.981,1.2.4,1.873.045s2.586-1.516,4.5-.4c1.3.753,5.747,2.585,8.5,3.694a22.136,22.136,0,0,1-.2-2.713c-.045-1.56-.267-1.962-.936-2.586s-6.2-3.79-7.624-4.726-2.051-.8-2.9-.267-3.3,2.211-3.381,2.268C230.208,30.2,230.343,33.263,230.343,34.12Z" transform="translate(-209.648 -26.746)"/><path class="a" d="M248.811,61.875c.961.265,6.576,1.663,9.4,2.363-.051-.331-.1-.707-.122-1.159a17.983,17.983,0,0,0-.283-2.285c-2.846-1.167-7.843-3.2-8.633-3.422-1.115-.312-1.783-.357-1.694.981s.134,1.65.134,2.051S247.518,61.519,248.811,61.875Z" transform="translate(-221.918 -48.348)"/><path class="a" d="M178.2,43.693,161.148,55.2c-.012.282-.026.58-.06.895l17.159-8.391Z" transform="translate(-160.627 -38.771)"/><path class="a" d="M183.764,82.856a5.481,5.481,0,0,0-5.439-2.5c-.947.218-14.042,3.051-18.821,4.084-.033.831.274,1.19.5,1.222.041.006.518.022,1.316.045.161.576,1.258,1.023,2.6,1.023a3.094,3.094,0,0,0,2.551-.888l4.138.1c.166.622,1.11,1.1,2.262,1.1a2.4,2.4,0,0,0,2.231-1l1.715.037c0,.017-.006.033-.006.049,0,.8,1.517,1.449,3.388,1.449,1.807,0,3.279-.605,3.379-1.367l1.312.02A9.5,9.5,0,0,0,183.764,82.856Z" transform="translate(-159.501 -64.738)"/><path class="a" d="M177.233,67.588V64.11l-17.327,7.565c-.006.02-.01.039-.016.059a5.776,5.776,0,0,0-.168.693Z" transform="translate(-159.658 -53.258)"/><path class="a" d="M243.509,78.558a10.069,10.069,0,0,0-3.21.134c-.312.134,0,.357.936.758s3.7,2.051,4.547,4.146a11.622,11.622,0,0,1,.481,1.416,17.3,17.3,0,0,0,3.532.278c2.1-.134,2.586-.267,2.809-1.56s.491-1.694.624-2.452a2,2,0,0,0,.027-.268C250.5,80.248,244.659,78.659,243.509,78.558Z" transform="translate(-216.75 -63.471)"/></g><g transform="translate(93.865 55.565)"><path class="a" d="M200.638,126.6h-1.764v-.624h4.217v.624h-1.764v4.631h-.69Z" transform="translate(-198.874 -125.975)"/><path class="a" d="M215.923,125.975h.69v2.214h2.86v-2.214h.69v5.256h-.69v-2.417h-2.86v2.417h-.69Z" transform="translate(-210.971 -125.975)"/><path class="a" d="M234.573,125.975h3.034v.624h-2.345v1.6h2.054v.6h-2.054v1.807h2.41v.624h-3.1Z" transform="translate(-224.205 -125.975)"/></g><g transform="translate(50.903 64.753)"><g transform="translate(0)"><path class="a" d="M50.951,158.16h1.38v4.429h5.722V158.16h1.38v10.514h-1.38v-4.836H52.331v4.836h-1.38Z" transform="translate(-50.951 -158)"/><path class="a" d="M88.778,158.16H90.1l4.342,10.514H92.96l-1.176-2.933H87.049l-1.191,2.933H84.45Zm-1.249,6.375H91.3l-.857-2.178c-.334-.842-.683-1.743-1-2.6h-.029c-.319.857-.668,1.743-1.031,2.643Z" transform="translate(-74.721 -158)"/><path class="a" d="M122.05,163.722V158.16h1.38v5.417a5.931,5.931,0,0,0,.407,2.716,2.592,2.592,0,0,0,2.5,1.264,2.546,2.546,0,0,0,2.469-1.264,5.784,5.784,0,0,0,.392-2.657V158.16h1.336v5.4a6.483,6.483,0,0,1-.7,3.631,4.088,4.088,0,0,1-3.558,1.641,4.031,4.031,0,0,1-3.529-1.641A6.351,6.351,0,0,1,122.05,163.722Z" transform="translate(-101.401 -158)"/><path class="a" d="M158.95,158.16h1.38v9.265H165.3v1.249H158.95Z" transform="translate(-127.584 -158)"/><path class="a" d="M186.827,158.16h1.322l4.342,10.514h-1.482l-1.176-2.933H185.1l-1.191,2.933H182.5Zm-1.249,6.375h3.776l-.857-2.178c-.334-.842-.683-1.743-1-2.6h-.029c-.32.857-.668,1.743-1.031,2.643Z" transform="translate(-144.293 -158)"/><path class="a" d="M223.5,157.61a6.167,6.167,0,0,1,3.224.871v1.569a5.158,5.158,0,0,0-3.253-1.162,4.154,4.154,0,1,0,.044,8.307,4.694,4.694,0,0,0,2.149-.494v-2.454h-2.352v-1.205h3.732v4.342a6.694,6.694,0,0,1-3.645,1.06,5.266,5.266,0,0,1-5.446-5.388A5.322,5.322,0,0,1,223.5,157.61Z" transform="translate(-169.448 -157.61)"/><path class="a" d="M256.7,158.16h6.07v1.249H258.08v3.2h4.11v1.205h-4.11v3.616H262.9v1.249h-6.2Z" transform="translate(-196.944 -158)"/><path class="a" d="M296.349,158.16h1.38v4.429h5.722V158.16h1.38v10.514h-1.38v-4.836h-5.722v4.836h-1.38Z" transform="translate(-225.078 -158)"/><path class="a" d="M333.249,163.722V158.16h1.38v5.417a5.932,5.932,0,0,0,.407,2.716,2.592,2.592,0,0,0,2.5,1.264A2.546,2.546,0,0,0,340,166.292a5.784,5.784,0,0,0,.392-2.657V158.16h1.336v5.4a6.483,6.483,0,0,1-.7,3.631,4.088,4.088,0,0,1-3.558,1.641,4.031,4.031,0,0,1-3.529-1.641A6.351,6.351,0,0,1,333.249,163.722Z" transform="translate(-251.261 -158)"/><path class="a" d="M370.148,158.16h2.817a5.092,5.092,0,0,1,2.8.552A2.389,2.389,0,0,1,377,160.861a2.25,2.25,0,0,1-1.6,2.222v.029a2.374,2.374,0,0,1,2.019,2.454,2.869,2.869,0,0,1-1.205,2.411,5.577,5.577,0,0,1-3.282.7h-2.788Zm3.456,4.589c1.06,0,2.018-.494,2.018-1.641a1.464,1.464,0,0,0-.741-1.336,3.96,3.96,0,0,0-2.106-.363h-1.249v3.34Zm-.581,4.676a4.017,4.017,0,0,0,2.338-.45,1.614,1.614,0,0,0,.682-1.38c0-1.162-.915-1.786-2.483-1.786h-2.033v3.616Z" transform="translate(-277.443 -158)"/></g></g><g transform="translate(50.884 57.513)"><line class="b" x1="40.273" transform="translate(0 0)"/><line class="b" x1="40.37" transform="translate(59.538 0.064)"/></g><g transform="translate(50.884 59.593)"><line class="c" x1="40.273" transform="translate(0 0.064)"/><line class="c" x1="40.37" transform="translate(59.538)"/></g></g></svg>